<?xml version="1.0" standalone="no"?>
<!DOCTYPE svg PUBLIC "-//W3C//DTD SVG 20010904//EN"
 "http://www.w3.org/TR/2001/REC-SVG-20010904/DTD/svg10.dtd">
<svg version="1.0" xmlns="http://www.w3.org/2000/svg"
 width="920.000000pt" height="800.000000pt" viewBox="0 0 920.000000 800.000000"
 preserveAspectRatio="xMidYMid meet">

<g transform="translate(0.000000,800.000000) scale(0.100000,-0.100000)"
fill="#000000" stroke="none">
<path d="M4325 7989 c-522 -36 -1043 -178 -1509 -411 -167 -84 -258 -136 -421
-244 -1042 -690 -1698 -1816 -1785 -3064 -12 -172 -4 -526 15 -700 50 -446
158 -835 348 -1248 38 -84 74 -155 79 -158 5 -3 -2 17 -17 45 -14 29 -23 57
-19 63 4 6 3 8 -3 5 -6 -4 -13 1 -16 11 -2 9 -8 26 -13 36 -6 15 -4 17 7 11 8
-4 11 -5 7 0 -10 11 11 37 24 29 5 -3 5 -11 -2 -19 -8 -10 -8 -15 1 -21 7 -4
9 -3 5 4 -3 6 -2 14 4 17 6 4 1 18 -15 37 -34 40 -32 60 2 22 16 -17 22 -23
15 -14 -20 27 -14 35 11 14 22 -19 22 -19 5 2 -27 32 -21 40 9 13 l28 -24 -22
26 c-33 37 -28 48 7 14 16 -15 27 -33 23 -38 -4 -6 -1 -7 6 -2 9 5 7 13 -8 29
-14 15 -17 26 -11 36 9 14 11 13 14 -9 0 -5 4 -12 8 -16 3 -4 5 1 3 12 -1 10
7 28 18 41 12 12 22 32 24 44 6 37 23 46 18 10 -2 -18 2 -35 8 -38 7 -4 9 -3
4 1 -4 5 9 26 30 47 34 35 38 36 54 22 12 -10 19 -12 24 -4 3 6 3 9 -2 8 -10
-4 -14 13 -8 34 3 9 12 15 21 14 16 -2 20 -21 5 -21 -5 0 -12 -3 -16 -7 -12
-11 22 -3 37 10 8 6 17 9 20 7 3 -3 5 2 5 12 0 35 3 41 18 39 9 -1 14 -6 13
-12 -2 -5 -6 -8 -9 -7 -3 1 -6 -5 -6 -13 0 -11 6 -9 22 6 12 11 24 18 27 15 3
-3 4 13 3 37 -3 38 -2 41 10 25 7 -11 12 -28 10 -38 -2 -11 0 -17 5 -14 9 5 6
37 -4 54 -3 5 2 15 11 22 14 12 15 11 9 -8 -4 -12 -2 -24 4 -28 6 -3 7 -11 4
-17 -5 -7 -2 -8 5 -3 9 5 10 10 2 18 -20 20 -11 30 10 11 11 -10 20 -14 19 -9
-5 21 0 36 10 30 6 -4 7 1 3 12 -6 16 -5 16 10 5 9 -8 13 -21 10 -30 -3 -9 -3
-14 1 -10 7 5 13 27 15 51 1 5 5 6 10 3 11 -7 9 -25 -4 -46 -7 -12 -6 -13 7
-3 8 7 19 9 24 5 4 -4 4 0 -2 8 -12 17 -12 30 -1 48 5 6 5 17 2 22 -3 6 -1 10
5 10 7 0 10 -13 7 -35 -3 -19 -1 -38 4 -41 5 -3 6 -10 3 -16 -4 -7 -2 -8 5 -4
7 5 9 12 3 19 -4 7 -7 18 -6 25 1 6 2 21 3 32 0 11 5 20 10 20 6 0 8 -9 6 -21
-3 -17 -2 -19 10 -9 8 7 13 16 10 20 -3 5 -1 11 4 14 15 10 21 -22 5 -34 -8
-7 -14 -18 -14 -24 0 -6 5 -3 11 7 9 15 13 16 27 5 13 -11 14 -11 7 2 -5 8
-11 23 -12 34 -3 16 -1 17 12 6 8 -7 13 -16 10 -20 -3 -5 -1 -11 5 -15 6 -4 7
-11 4 -17 -4 -7 -2 -8 5 -4 9 6 9 11 1 21 -8 9 -8 15 0 20 6 4 10 12 9 18 -3
24 1 38 9 33 11 -6 9 -36 -3 -56 -4 -8 -5 -12 0 -8 4 4 15 2 23 -5 13 -10 14
-9 7 3 -5 8 -11 23 -12 34 -3 16 -1 17 12 6 8 -7 13 -16 10 -20 -3 -5 -2 -11
3 -14 4 -2 9 5 11 17 1 12 4 549 7 1192 7 1845 6 1792 37 1908 115 429 442
756 874 875 l98 27 1805 0 1805 0 98 -27 c219 -60 394 -162 553 -322 160 -159
262 -334 322 -553 l27 -98 0 -1805 0 -1805 -27 -98 c-59 -214 -151 -375 -303
-534 -160 -169 -349 -280 -572 -340 -117 -31 -87 -31 -1693 -37 -1116 -5
-1112 -5 -1092 -13 6 -3 9 -10 6 -15 -4 -6 -2 -8 3 -5 6 4 16 0 22 -7 8 -9 8
-17 2 -20 -5 -3 -12 0 -15 6 -3 7 -3 1 0 -14 4 -16 3 -35 0 -44 -6 -15 -9 -15
-29 2 -22 19 -22 19 -4 -2 9 -11 14 -24 10 -28 -5 -4 -8 -17 -8 -29 -1 -12 -6
-21 -11 -20 -6 1 -11 -5 -11 -13 0 -12 3 -11 18 2 10 9 16 24 14 34 -5 25 19
45 31 28 5 -7 9 -24 8 -38 -3 -44 -7 -46 -14 -5 l-7 40 -2 -38 c0 -21 -5 -36
-10 -33 -5 3 -15 -2 -22 -12 -12 -15 -12 -16 2 -5 15 12 29 8 29 -9 0 -4 -5
-7 -12 -6 -13 3 -19 -59 -8 -77 6 -9 6 -45 0 -62 -1 -5 -6 8 -10 27 l-7 35 -2
-33 c0 -19 -5 -31 -11 -27 -6 4 -7 -1 -3 -12 6 -16 5 -17 -13 -3 -15 11 -16
11 -6 0 14 -17 16 -54 2 -45 -6 4 -7 -1 -3 -12 6 -16 5 -16 -10 -4 -9 7 -15
17 -12 21 3 5 1 11 -4 14 -13 8 -7 -22 7 -36 19 -19 14 -33 -6 -15 -15 14 -19
15 -19 2 0 -8 3 -12 7 -10 4 3 15 -4 24 -14 10 -11 13 -22 8 -25 -6 -3 -12 1
-15 8 -7 18 -45 17 -43 -1 1 -7 8 -19 14 -25 19 -19 14 -33 -6 -15 -15 14 -19
14 -19 3 0 -8 5 -14 11 -13 7 1 11 -21 12 -58 1 -57 0 -58 -12 -30 -7 17 -9
35 -6 40 13 21 9 31 -13 31 -25 0 -27 -15 -6 -40 7 -9 10 -23 7 -32 -6 -15 -8
-15 -29 2 -22 19 -22 19 -4 -2 24 -29 21 -41 -5 -18 -23 19 -23 19 -5 -2 9
-11 14 -24 11 -27 -4 -4 -1 -13 5 -21 8 -9 8 -16 2 -20 -5 -4 -13 4 -16 15 -7
20 -8 20 -17 5 -5 -9 -14 -13 -21 -9 -8 5 -8 2 1 -9 17 -21 -7 -44 -28 -25
-10 8 -9 5 1 -8 8 -11 14 -26 13 -32 -1 -7 -2 -18 -3 -24 0 -5 -5 -8 -10 -4
-6 3 -8 14 -6 25 2 10 -4 25 -13 32 -15 11 -15 11 -6 -2 14 -20 11 -46 -4 -42
-7 1 -11 -4 -10 -10 2 -7 -2 -12 -8 -11 -6 1 -10 -10 -9 -25 1 -15 -1 -34 -5
-42 -4 -8 -1 -28 7 -45 l14 -30 -6 30 c-7 33 10 24 18 -10 4 -17 5 -16 7 5 l2
25 9 -25 8 -25 -1 25 c-1 48 1 56 11 41 6 -9 14 0 26 33 13 34 21 44 28 34 6
-9 7 -8 3 5 -4 12 -2 16 6 11 7 -5 8 -3 3 6 -5 9 -4 11 3 6 8 -5 10 -1 6 11
-5 15 -4 16 5 3 8 -12 10 -7 6 20 -4 29 -3 31 4 10 l9 -25 1 27 c1 14 -4 28
-11 30 -7 3 -6 7 5 11 14 5 17 0 17 -30 0 -20 3 -34 6 -30 7 7 14 62 16 131 1
36 3 44 10 31 6 -9 7 -28 4 -43 l-5 -27 10 25 c18 40 26 65 25 70 0 3 9 19 21
36 12 17 20 34 16 37 -3 4 0 13 6 21 7 9 10 25 6 38 -4 16 -4 19 3 9 8 -11 11
-9 18 10 13 40 16 53 17 86 1 17 6 29 11 26 5 -4 6 -1 1 7 -5 8 -4 11 2 7 7
-4 9 5 8 26 -2 17 2 43 9 57 6 14 11 55 11 92 0 42 3 64 10 60 5 -3 4 2 -4 11
-11 14 -11 20 -1 32 13 16 12 17 -19 19 -11 0 -23 5 -27 9 -4 4 17 6 47 4 31
-2 54 -8 54 -14 0 -17 15 -28 16 -12 1 8 1 18 0 22 -1 5 3 6 9 2 6 -4 7 -13 2
-23 -11 -22 -9 -42 3 -42 6 0 11 9 11 20 1 11 3 23 4 28 1 4 2 11 1 15 -1 5 3
6 9 2 6 -3 7 -12 3 -18 -4 -7 -8 -20 -9 -29 -1 -10 -3 -20 -4 -23 -8 -15 -5
-72 4 -84 9 -12 8 -13 -4 -6 -19 12 -40 15 -40 6 0 -3 7 -16 15 -28 13 -18 13
-22 -1 -33 -13 -12 -12 -16 6 -35 16 -17 18 -25 9 -30 -7 -5 -10 -4 -6 2 4 6
-2 18 -13 28 -11 10 -17 21 -15 26 3 4 1 10 -4 13 -18 12 -20 -11 -3 -35 18
-26 25 -52 12 -44 -14 9 -31 -42 -20 -60 6 -9 6 -28 0 -40 -8 -15 -5 -32 9
-50 16 -20 16 -20 -6 -1 -13 10 -20 22 -18 26 3 4 -2 13 -10 20 -26 21 -13
-25 16 -57 23 -27 23 -27 -9 1 -33 31 -44 26 -15 -6 16 -18 30 -58 15 -43 -4
4 -7 11 -7 16 0 5 -4 8 -10 7 -5 -2 -9 -7 -7 -11 1 -5 -3 -5 -9 -1 -7 4 -10 2
-7 -7 3 -8 12 -12 19 -11 8 2 11 0 7 -4 -4 -4 -2 -14 4 -23 10 -12 7 -12 -8 2
-11 9 -23 15 -26 12 -3 -3 -5 5 -4 17 0 13 -4 23 -9 23 -10 0 -10 -5 -1 -62 3
-20 -1 -36 -9 -43 -10 -9 -13 -8 -11 4 1 9 5 19 9 22 14 14 7 26 -8 14 -8 -7
-15 -25 -15 -40 0 -15 -7 -33 -15 -40 -12 -10 -12 -15 0 -33 8 -12 14 -26 14
-32 -1 -17 -21 -35 -32 -28 -6 4 -8 0 -4 -11 4 -10 3 -15 -3 -11 -6 4 -9 13
-8 20 2 8 -1 14 -7 14 -15 1 -13 -22 3 -41 9 -11 10 -18 2 -23 -5 -3 -8 -11
-4 -16 3 -5 0 -8 -8 -7 -7 2 -12 -3 -10 -10 1 -6 -1 -11 -5 -10 -5 2 -8 -1 -8
-7 0 -5 4 -9 10 -7 5 2 1 -6 -9 -17 -23 -25 -24 -25 -22 -3 0 9 -3 18 -9 20
-13 3 -14 -17 -3 -43 9 -19 8 -19 -6 -2 -20 26 -26 25 -41 -3 -20 -36 -18 -49
3 -22 16 20 20 22 31 9 7 -10 8 -17 2 -21 -5 -4 -8 -15 -6 -26 2 -12 0 -18 -5
-15 -9 6 -8 24 3 42 4 6 3 14 -2 17 -8 5 -22 -16 -26 -39 -1 -5 6 -19 14 -30
16 -20 16 -20 -5 -2 -17 14 -23 15 -32 5 -6 -7 -11 -17 -12 -23 -1 -5 -3 -12
-5 -13 -6 -7 1 23 8 36 5 6 4 12 -2 12 -14 0 -32 -35 -23 -46 4 -5 -3 0 -15
10 -18 15 -23 16 -23 5 0 -9 -3 -10 -8 -3 -4 6 -15 10 -24 8 -10 -1 -20 2 -24
7 -3 5 -10 7 -15 4 -5 -4 -9 -2 -9 4 0 5 5 13 10 16 6 3 10 1 10 -6 0 -7 3 -9
6 -6 4 4 0 17 -9 30 -12 19 -13 27 -4 38 10 11 9 11 -4 1 -9 -6 -20 -8 -25 -4
-5 4 -1 -2 9 -14 26 -32 20 -40 -10 -13 -15 13 -21 16 -13 5 18 -23 22 -48 7
-43 -7 2 -12 9 -12 14 0 6 -4 15 -8 20 -5 4 -7 1 -5 -7 2 -11 -4 -14 -19 -12
-51 7 -17 -9 90 -42 247 -77 503 -130 772 -162 205 -24 641 -24 850 0 933 107
1746 497 2400 1151 655 654 1044 1465 1151 2400 23 205 23 663 0 860 -97 815
-405 1530 -925 2150 -98 117 -352 371 -466 466 -628 525 -1350 834 -2155 924
-170 19 -534 26 -705 14z m-2570 -5007 c-1 -9 2 -22 7 -29 5 -7 5 -14 -2 -18
-5 -3 -10 -11 -10 -16 0 -6 3 -8 8 -6 4 3 8 -17 9 -45 l1 -50 -23 22 c-22 21
-24 21 -33 3 -5 -10 -7 -25 -4 -33 5 -13 3 -13 -11 -1 -10 7 -17 21 -18 30 0
12 -2 11 -9 -4 -6 -14 -9 -15 -10 -5 0 13 -2 12 -10 -1 -6 -11 -20 -15 -39
-13 -18 2 -37 -3 -48 -14 -11 -9 -13 -13 -6 -8 8 5 16 6 19 3 9 -9 -6 -28 -17
-22 -5 4 -12 -1 -15 -10 -5 -12 -10 -13 -19 -5 -11 9 -17 5 -28 -17 l-15 -28
-13 27 c-11 25 -13 26 -25 10 -7 -9 -18 -17 -26 -17 -8 0 -13 -12 -14 -30 -2
-44 -3 -47 -14 -40 -7 4 -8 11 -2 18 9 11 -1 57 -12 57 -3 0 -1 -11 4 -24 6
-18 5 -28 -6 -36 -12 -11 -13 -8 -10 16 2 16 1 20 -2 9 -5 -18 -6 -18 -13 5
-6 22 -7 21 -7 -10 0 -19 -2 -44 -5 -55 -3 -11 -6 -21 -6 -23 -1 -2 -6 0 -11
3 -6 4 -7 12 -3 18 4 7 8 15 9 20 1 4 2 8 4 10 1 1 2 17 3 35 2 35 -16 62 -28
42 -3 -5 -1 -10 4 -10 6 0 11 -12 10 -27 -1 -26 -2 -24 -15 16 -2 8 -7 12 -10
9 -2 -3 0 -17 5 -31 7 -18 7 -28 -1 -33 -7 -5 -8 -2 -3 7 8 12 6 12 -9 0 -9
-8 -15 -20 -12 -28 7 -17 -14 -64 -25 -57 -5 3 -2 15 6 27 10 16 11 26 4 37
-9 13 -10 12 -5 -2 3 -11 1 -17 -7 -15 -7 1 -12 -9 -11 -25 1 -19 -10 -37 -34
-60 -29 -28 -33 -30 -28 -11 4 12 3 24 -2 27 -12 7 -31 -15 -35 -42 -4 -26
-36 -64 -48 -56 -5 3 -7 10 -3 15 3 5 10 7 15 3 5 -3 8 0 7 8 -2 7 2 12 7 11
6 -1 11 11 11 25 1 15 -1 21 -3 13 -5 -11 -7 -11 -14 0 -7 12 -9 11 -9 -1 0
-12 -2 -12 -9 -1 -6 9 -11 10 -15 2 -4 -6 -2 -11 3 -11 6 0 11 -5 11 -11 0 -5
-3 -8 -8 -6 -4 3 -21 -6 -37 -19 -17 -14 -22 -22 -12 -18 22 8 22 2 -3 -38
l-19 -32 -10 27 c-6 15 -12 27 -14 27 -8 0 1 -71 11 -83 9 -11 8 -18 -7 -31
-18 -16 -19 -16 -24 6 -4 13 -6 26 -7 30 0 5 -11 33 -24 63 -15 33 -21 57 -15
61 7 4 6 10 0 18 -8 9 -7 13 4 13 8 0 13 -3 10 -5 -3 -3 2 -14 12 -24 9 -10
13 -18 9 -18 -4 0 -4 -5 -1 -10 4 -6 11 -8 16 -4 6 4 5 14 -4 27 -14 22 -17
70 -5 82 3 4 4 -10 2 -30 -2 -30 -1 -35 10 -26 7 6 12 23 10 37 -2 21 0 23 12
13 16 -13 19 -23 4 -14 -14 9 -4 -45 10 -59 8 -8 10 -4 5 15 -4 16 -2 30 5 34
8 5 6 13 -7 27 -13 15 -14 19 -3 16 8 -2 14 3 12 10 -1 8 2 11 8 7 7 -4 9 3 6
20 -3 15 -2 25 1 21 14 -13 12 -44 -2 -56 -8 -7 -12 -17 -9 -22 6 -9 30 17 34
37 1 6 8 17 16 26 11 12 11 18 1 29 -10 12 -9 12 5 1 10 -7 15 -18 11 -25 -11
-17 -12 -35 -2 -42 5 -3 9 -2 10 3 0 4 3 17 5 28 3 11 5 29 5 40 0 15 2 16 9
6 4 -8 5 -21 2 -30 -5 -14 -4 -14 11 -2 13 10 14 17 7 26 -8 9 -8 15 0 20 6 4
9 2 8 -3 -2 -6 2 -10 7 -10 6 -1 9 5 7 13 -3 18 15 28 24 14 4 -8 3 -9 -4 -5
-7 4 -12 3 -12 -3 0 -17 17 -21 29 -7 8 10 9 16 2 21 -11 6 -10 40 2 51 3 4 4
-6 1 -21 -4 -25 -3 -27 10 -15 9 7 13 17 9 24 -3 6 -3 8 2 4 4 -4 14 -3 22 3
11 10 11 15 1 28 -12 14 -11 14 5 2 17 -13 17 -15 -3 -36 -11 -12 -17 -25 -13
-29 5 -4 4 -6 -2 -4 -5 1 -11 -1 -13 -6 -1 -6 4 -11 13 -12 13 -2 19 7 17 27
-1 4 8 15 18 24 19 17 19 19 3 39 -18 21 -18 21 3 4 15 -14 23 -15 32 -6 9 9
8 17 -6 32 -13 16 -13 18 -1 8 9 -6 18 -9 22 -6 14 14 -1 -27 -16 -44 -9 -10
-14 -22 -10 -25 3 -4 17 8 30 25 12 18 23 27 23 21 0 -7 -5 -15 -10 -18 -6 -4
-7 -11 -4 -17 9 -15 33 32 27 51 -4 14 -4 14 6 1 9 -12 11 -13 11 -1 0 8 2 12
5 9 3 -3 -4 -21 -15 -41 -19 -31 -19 -35 -4 -41 11 -4 15 -2 11 7 -3 8 3 27
13 42 10 15 16 35 13 44 -4 13 -3 14 5 2 6 -9 7 -22 2 -31 -5 -10 -3 -22 7
-35 15 -19 15 -19 10 4 -4 14 -2 30 4 37 7 8 7 14 -1 19 -5 3 -10 12 -10 18 0
7 5 4 11 -6 10 -17 29 -15 29 4 0 6 -4 8 -8 5 -4 -2 -8 6 -8 19 0 21 9 26 12
7 2 -20 17 -41 26 -36 5 3 4 12 -3 20 -10 12 -10 15 2 12 8 -2 13 3 11 12 -2
10 6 6 22 -9 32 -30 34 -17 4 18 l-23 26 28 -24 c15 -14 27 -29 26 -35 -3 -23
1 -37 9 -32 15 9 6 45 -16 69 -16 17 -18 24 -8 24 8 0 14 -4 13 -8 -1 -4 3 -7
8 -7 6 0 9 3 8 7 -1 4 5 8 13 8 12 0 12 -3 -1 -17 -13 -14 -13 -19 -2 -28 14
-12 27 -7 27 10 0 5 -6 6 -12 2 -7 -4 -5 1 4 12 12 14 14 24 7 31 -7 7 -4 14
8 24 16 13 17 12 5 -3 -9 -11 -10 -18 -2 -23 7 -5 8 -11 1 -19 -6 -7 -6 -17
-1 -26 6 -8 10 -13 11 -10 6 35 9 44 17 52 6 6 13 5 17 -3 5 -8 4 -10 -3 -5
-15 9 -11 -21 6 -49 11 -18 12 -18 10 10 -2 21 2 30 12 30 9 0 14 8 13 20 -1
11 0 14 3 7 3 -6 10 -9 15 -6 6 4 6 10 0 18 -8 9 -7 13 3 13 9 0 12 -10 11
-29 -3 -29 10 -47 17 -25 3 6 4 29 3 49 -1 20 2 35 6 32 4 -2 6 -12 4 -22z
m-108 -7 c0 -8 -4 -12 -9 -9 -5 3 -6 10 -3 15 9 13 12 11 12 -6z m33 -10 c-5
-7 -9 -14 -7 -16 1 -2 0 -3 -2 -1 -11 7 -7 29 5 29 9 0 11 -4 4 -12z m-276
-74 c3 -4 -4 -17 -17 -27 -22 -19 -22 -19 -4 2 9 11 14 24 10 27 -3 4 -4 7 0
7 3 0 8 -4 11 -9z m-253 -164 c-10 -9 -11 -8 -5 6 3 10 9 15 12 12 3 -3 0 -11
-7 -18z m-54 -22 c0 -8 -4 -12 -9 -9 -5 3 -6 10 -3 15 9 13 12 11 12 -6z m223
-30 c-7 -8 -9 -15 -5 -15 4 0 2 -7 -6 -16 -11 -14 -13 -14 -22 1 -5 9 -6 19
-3 22 3 4 6 0 6 -8 0 -8 6 -4 16 9 8 12 18 22 21 22 3 0 0 -7 -7 -15z m-228
-168 c-20 -21 -22 -25 -22 -48 0 -5 -4 -8 -8 -5 -10 6 -9 36 2 54 4 7 12 10
17 7 5 -4 12 1 15 10 4 9 9 13 12 10 3 -3 -4 -15 -16 -28z m2690 -1371 c-4 -6
-7 -47 -8 -91 0 -44 -6 -92 -12 -106 -6 -15 -9 -35 -8 -45 2 -11 -2 -25 -8
-33 -6 -7 -11 -28 -13 -45 -1 -17 -4 -40 -7 -51 -2 -11 -5 -24 -5 -30 -1 -5
-5 -3 -11 5 -5 9 -5 19 2 27 6 8 8 16 4 20 -3 3 -6 1 -6 -6 0 -7 -4 -10 -8 -7
-5 3 -8 -16 -6 -42 1 -26 -3 -53 -8 -60 -6 -7 -8 -15 -5 -19 4 -3 -2 -18 -12
-32 -10 -14 -20 -30 -21 -36 -1 -5 -5 -16 -10 -24 -11 -20 -24 23 -16 54 4 14
0 27 -9 35 -14 12 -12 30 4 30 11 0 31 -47 23 -54 -10 -10 -11 -35 -2 -41 5
-3 7 4 5 15 -3 13 0 18 7 14 7 -4 8 -3 4 4 -4 7 -1 12 6 12 9 0 9 3 -2 10 -13
9 -13 12 3 24 15 12 16 14 2 20 -14 5 -14 9 -2 33 8 16 17 41 21 56 4 15 10
25 15 23 13 -8 27 16 25 42 -1 12 -3 23 -4 25 -8 9 -5 76 4 74 6 -1 10 6 10
15 -1 10 2 16 6 13 22 -14 35 68 14 86 -11 9 -10 34 3 69 4 8 6 18 5 21 0 3 5
6 13 6 8 0 11 -5 7 -11z m144 -22 c1 -9 0 -13 -4 -10 -3 4 -7 14 -8 22 -1 9 0
13 4 10 3 -4 7 -14 8 -22z m4 -29 c0 -2 -6 -8 -13 -14 -10 -8 -14 -7 -14 2 0
8 6 14 14 14 7 0 13 -1 13 -2z m-9 -38 c-6 -8 -7 -18 -3 -22 4 -5 1 -5 -6 -1
-10 6 -10 11 -1 22 6 8 14 14 16 14 3 0 0 -6 -6 -13z m10 -54 c13 -16 12 -17
-3 -4 -10 7 -18 15 -18 17 0 8 8 3 21 -13z m-11 -29 c0 -8 -19 -13 -24 -6 -3
5 1 9 9 9 8 0 15 -2 15 -3z m-33 -21 c-4 -3 -1 -13 6 -22 11 -14 10 -14 -5 -2
-16 12 -16 31 -1 31 4 0 3 -3 0 -7z m1 -80 c-9 -10 -14 -26 -13 -36 2 -11 0
-16 -3 -12 -4 4 -7 12 -7 18 -1 7 -7 11 -14 9 -7 -1 -10 2 -6 8 3 6 10 8 15 5
4 -3 13 2 20 10 7 8 15 15 18 15 3 0 -2 -8 -10 -17z m-105 -248 c4 -8 3 -16
-1 -19 -4 -3 -9 4 -9 15 -2 23 3 25 10 4z m-199 -36 c-3 -5 -10 -7 -15 -3 -5
3 -7 10 -3 15 3 5 10 7 15 3 5 -3 7 -10 3 -15z m181 -33 c0 -19 -3 -37 -6 -40
-4 -5 -4 62 0 72 4 10 7 -4 6 -32z m-28 -4 c0 -10 -6 -19 -13 -19 -9 0 -9 5
-1 19 7 10 13 18 14 18 1 0 1 -8 0 -18z m-134 -70 c-8 -20 -23 6 -15 27 6 17
4 16 -18 -13 -10 -13 -10 -17 -2 -12 6 4 12 2 12 -3 0 -6 -4 -11 -9 -11 -19 0
-21 20 -5 46 l17 26 13 -23 c6 -13 9 -29 7 -37z m157 13 c0 -2 -6 -8 -13 -14
-10 -8 -14 -7 -14 2 0 8 6 14 14 14 7 0 13 -1 13 -2z m-210 -50 c13 8 -7 -55
-24 -74 -8 -9 -21 -32 -30 -51 -9 -19 -15 -28 -13 -20 3 8 7 26 11 40 3 14 -5
1 -19 -29 -20 -42 -28 -51 -38 -42 -8 6 -18 7 -22 3 -5 -4 -4 -1 0 7 5 8 9 26
10 40 1 14 7 25 13 23 7 -1 11 1 10 5 -2 5 0 9 5 11 4 1 7 0 7 -3 0 -3 0 -12
0 -21 0 -8 -4 -13 -9 -9 -5 3 -13 0 -17 -6 -4 -8 -3 -9 4 -5 7 4 12 1 12 -9 0
-9 -4 -13 -10 -10 -6 4 -7 -1 -3 -11 6 -15 8 -14 16 7 6 13 17 40 26 59 9 19
16 42 16 50 0 8 5 22 10 30 5 8 10 18 11 23 1 4 2 10 3 15 1 4 6 -1 12 -11 6
-9 14 -15 19 -12z m167 -10 c0 -8 -4 -12 -9 -9 -5 3 -6 10 -3 15 9 13 12 11
12 -6z m-16 -39 c-6 -7 -7 -17 -3 -21 4 -5 1 -5 -6 -1 -9 6 -10 11 -3 20 6 7
7 17 3 21 -4 5 -1 5 6 1 9 -6 10 -11 3 -20z m-26 -35 c3 -5 2 -12 -3 -15 -5
-3 -9 1 -9 9 0 17 3 19 12 6z m-28 -49 c-10 -10 -14 -22 -10 -27 5 -4 2 -5 -5
-1 -11 6 -10 12 4 27 9 10 19 19 22 19 3 0 -2 -8 -11 -18z m-23 -41 c3 -5 -2
-15 -12 -22 -15 -12 -16 -12 -5 2 7 9 10 19 6 22 -3 4 -4 7 0 7 3 0 8 -4 11
-9z m-70 -70 c3 -5 -2 -15 -12 -22 -15 -12 -16 -12 -5 2 7 9 10 19 6 22 -3 4
-4 7 0 7 3 0 8 -4 11 -9z"/>
<path d="M1702 2928 c-5 -8 -6 -22 -1 -33 l8 -20 1 20 c1 15 4 13 14 -11 19
-43 33 -49 32 -14 -1 17 -6 31 -11 31 -16 1 -35 21 -29 30 8 14 -2 11 -14 -3z
m45 -50 c2 -17 0 -19 -7 -8 -5 8 -6 18 -4 22 8 12 10 10 11 -14z"/>
<path d="M1676 2896 c7 -31 -12 -43 -26 -16 -9 17 -14 19 -26 9 -8 -6 -14 -8
-14 -4 0 4 -6 2 -13 -4 -8 -6 -17 -8 -20 -4 -4 3 -7 1 -7 -5 0 -7 5 -12 10
-12 6 0 10 -5 10 -11 0 -5 -5 -7 -10 -4 -6 3 -13 -1 -16 -9 -5 -12 -11 -9 -28
16 -19 29 -41 40 -41 21 0 -5 -3 -12 -6 -18 -4 -5 -3 -19 2 -30 4 -11 8 -14
10 -7 1 6 3 17 4 22 1 6 3 16 4 23 2 15 25 -22 26 -44 1 -9 -4 -16 -11 -16 -7
0 -10 7 -7 16 3 9 -7 0 -22 -19 -15 -19 -25 -27 -22 -18 3 10 2 20 -3 23 -16
10 -11 -29 5 -51 15 -18 15 -18 8 0 -4 13 -3 17 5 12 6 -3 15 2 21 11 6 11 11
13 11 5 0 -7 10 -1 23 14 13 15 32 28 43 29 11 0 25 4 32 9 6 4 12 2 12 -3 0
-6 10 -1 22 11 19 19 22 19 33 5 10 -14 12 -14 23 4 7 10 12 22 12 26 0 5 -4
2 -9 -5 -6 -10 -11 -6 -19 17 -13 36 -25 42 -16 7z m-31 -26 c11 -17 -5 -32
-20 -20 -10 8 -14 7 -18 -7 -4 -15 -5 -14 -6 4 -1 27 31 44 44 23z m-142 -85
c-3 -9 -8 -14 -10 -11 -3 3 -2 9 2 15 9 16 15 13 8 -4z"/>
<path d="M1625 2860 c3 -5 8 -10 11 -10 2 0 4 5 4 10 0 6 -5 10 -11 10 -5 0
-7 -4 -4 -10z"/>
<path d="M1445 2830 c-9 -10 -14 -24 -10 -29 3 -6 3 -21 -1 -33 -6 -21 -7 -21
-21 7 -10 18 -18 24 -22 16 -9 -14 -7 -57 2 -53 10 3 16 4 30 6 6 0 18 20 26
44 12 39 14 41 27 25 12 -17 13 -16 7 5 -8 31 -18 35 -38 12z m-41 -80 c-6 -6
-10 -3 -10 10 0 13 4 16 10 10 7 -7 7 -13 0 -20z"/>
<path d="M1320 2773 c0 -13 39 -43 44 -35 2 4 -7 15 -20 25 -13 10 -24 14 -24
10z"/>
<path d="M1270 2755 c-7 -8 -9 -15 -6 -15 4 0 2 -9 -4 -20 -6 -11 -16 -17 -22
-14 -7 5 -9 0 -6 -14 4 -14 2 -20 -5 -15 -7 4 -8 0 -4 -11 5 -11 3 -15 -5 -10
-7 5 -8 3 -3 -6 5 -8 4 -11 -3 -6 -7 4 -8 -3 -2 -23 4 -16 5 -33 2 -37 -4 -4
-2 -4 5 -1 6 4 9 16 6 26 -5 21 24 74 37 66 13 -8 33 24 26 41 -4 9 -2 22 4
29 7 8 7 16 2 19 -6 3 -15 -1 -22 -9z m6 -52 c-2 -9 -11 -17 -20 -19 -17 -2
-17 -2 0 17 21 23 23 23 20 2z"/>
<path d="M1205 2700 c-5 -8 -11 -22 -13 -30 -5 -22 -2 -104 4 -110 3 -3 5 15
3 40 -1 25 3 55 10 68 14 26 10 55 -4 32z"/>
<path d="M1151 2666 c-11 -12 -18 -26 -14 -30 4 -3 13 4 21 16 7 13 11 16 9 7
-3 -9 -1 -31 3 -50 l9 -34 -2 40 c0 23 2 46 6 52 14 23 -11 22 -32 -1z"/>
<path d="M1112 2632 c-1 -9 -2 -25 -3 -34 0 -10 -4 -20 -10 -23 -5 -3 -6 0 -3
8 3 8 -1 19 -9 26 -12 9 -20 4 -41 -24 -18 -23 -25 -42 -21 -54 8 -27 -11 -35
-28 -11 -16 24 -31 15 -17 -10 12 -23 -12 -47 -28 -28 -6 7 -11 16 -11 21 -1
4 -3 7 -6 7 -3 0 -7 0 -9 0 -3 0 6 -24 19 -54 13 -30 22 -57 19 -60 -2 -3 -1
-3 3 0 4 3 8 22 9 42 3 50 2 50 23 26 17 -22 18 -22 30 -2 7 11 8 17 2 14 -5
-4 -12 -2 -15 3 -4 5 7 19 24 31 17 12 28 25 25 30 -7 12 15 25 45 25 36 0 50
13 49 43 l-1 27 -8 -30 c-7 -29 -8 -29 -9 -4 -1 32 -27 59 -29 31z m20 -35 c3
-14 0 -24 -7 -24 -7 0 -10 10 -7 24 2 13 6 23 7 23 1 0 5 -10 7 -23z m-49 -11
c-3 -6 -12 -18 -19 -26 -7 -8 -13 -18 -13 -22 -1 -12 -15 -4 -17 9 -1 7 3 11
9 10 7 -1 11 4 9 11 -1 8 2 11 9 6 8 -5 10 -2 7 8 -4 8 0 15 8 15 7 0 10 -5 7
-11z m-77 -94 c-3 -3 0 -12 6 -21 10 -13 10 -14 -2 -4 -16 15 -23 46 -8 37 5
-3 7 -9 4 -12z m-38 -53 c-3 -8 -7 -3 -11 10 -4 17 -3 21 5 13 5 -5 8 -16 6
-23z"/>
<path d="M975 2381 c-3 -5 -2 -12 3 -15 5 -3 9 1 9 9 0 17 -3 19 -12 6z"/>
<path d="M3738 928 c0 -7 -2 -17 -2 -23 -1 -5 -5 -15 -9 -22 -4 -6 -3 -14 3
-18 12 -7 11 -9 15 38 2 34 -3 54 -7 25z"/>
<path d="M3677 699 c4 -13 8 -18 11 -10 2 7 -1 18 -6 23 -8 8 -9 4 -5 -13z"/>
<path d="M3530 419 c0 -5 -6 -7 -12 -3 -7 4 -10 4 -6 -1 4 -4 2 -15 -5 -23 -9
-13 -9 -14 1 -8 14 9 16 -5 2 -22 -5 -7 -3 -6 5 1 15 13 31 67 20 67 -3 0 -5
-5 -5 -11z"/>
<path d="M2851 6134 c-183 -49 -329 -195 -385 -383 -14 -49 -16 -206 -16
-1584 0 -842 2 -1528 4 -1526 2 2 6 72 8 156 1 83 6 151 9 150 4 -1 7 3 7 8 0
6 -4 9 -10 7 -5 -1 -7 2 -3 8 5 8 12 7 23 -2 13 -11 15 -10 9 4 -3 10 -3 20 2
22 11 7 10 -26 -1 -41 -5 -7 -5 -14 0 -17 10 -6 27 22 23 37 -1 5 3 6 9 2 6
-4 5 -14 -4 -28 -13 -19 -13 -25 1 -42 15 -19 15 -19 10 5 -4 15 0 33 10 45
12 15 14 16 10 3 -3 -9 1 -22 9 -29 13 -10 14 -8 10 14 -3 16 1 31 12 39 13
11 14 11 7 -2 -12 -19 -13 -70 -3 -76 7 -5 11 9 11 47 0 9 6 16 13 16 7 0 10
-5 6 -11 -16 -26 -9 -82 9 -70 6 4 6 11 -1 19 -8 9 -8 15 0 20 6 3 7 12 4 18
-4 7 -3 9 1 4 5 -4 18 1 29 10 21 18 21 18 3 -4 -12 -14 -15 -23 -8 -28 6 -3
11 -1 11 6 0 7 3 10 6 6 3 -3 2 -12 -2 -19 -5 -7 -10 -22 -11 -33 -3 -15 -1
-17 9 -7 12 12 19 33 21 69 0 12 4 20 8 17 7 -4 6 -24 -3 -49 -1 -5 2 -10 7
-10 5 0 9 3 8 6 -1 3 4 6 12 6 7 0 12 -8 10 -18 -2 -10 0 -21 5 -24 5 -3 6
-13 3 -22 -4 -11 -3 -14 6 -9 7 5 10 20 7 37 -3 18 0 28 7 26 7 -1 11 4 9 11
-1 8 2 11 8 7 8 -5 7 -12 -3 -23 -7 -10 -12 -26 -9 -36 3 -15 6 -16 13 -5 7 9
7 4 3 -16 -6 -28 -5 -29 9 -11 17 23 15 52 -4 48 -10 -3 -10 0 1 12 14 18 21
21 17 7 -1 -5 3 -9 8 -10 6 -1 10 3 10 8 0 5 3 12 7 16 12 12 3 -22 -10 -38
-9 -11 -10 -17 -2 -22 6 -4 9 -13 6 -21 -3 -7 -1 -16 4 -19 12 -8 19 17 9 37
-6 10 -5 19 1 23 6 4 10 3 9 -2 -3 -20 2 -34 11 -28 6 4 8 11 4 16 -3 5 0 8 7
7 7 -2 13 2 14 9 0 6 3 14 7 18 18 18 -1 -28 -20 -48 -34 -36 -26 -44 10 -11
18 16 26 21 18 11 -7 -10 -15 -30 -16 -45 -3 -25 -2 -26 11 -8 8 10 12 22 10
26 -3 4 3 14 12 21 15 12 16 12 8 -1 -5 -8 -11 -23 -12 -34 -3 -16 -1 -17 12
-6 8 7 13 16 10 20 -3 5 -1 11 5 15 6 4 7 11 4 17 -4 7 -2 8 5 4 9 -6 9 -11 1
-21 -7 -8 -7 -16 -2 -19 13 -8 34 18 24 29 -4 5 -1 5 6 1 11 -7 10 -11 -2 -25
-13 -14 -13 -20 -3 -31 10 -10 9 -11 -2 -5 -9 5 -12 3 -10 -4 7 -19 24 -13 24
9 0 10 3 22 6 25 4 3 6 -7 6 -22 -1 -15 3 -28 8 -28 6 0 9 8 9 17 -1 10 2 15
6 13 9 -5 8 -23 -1 -40 -3 -5 -4 -16 -3 -22 1 -7 2 -18 3 -25 2 -20 14 1 18
30 5 47 6 51 14 46 5 -3 3 -16 -3 -30 -9 -19 -9 -27 2 -37 10 -10 12 -8 6 8
-4 11 -4 16 0 12 4 -4 14 -1 23 6 9 7 7 0 -5 -18 -12 -16 -19 -36 -16 -44 3
-9 10 -1 18 19 8 18 17 30 21 26 4 -3 18 4 32 16 l26 23 -24 -27 c-13 -15 -28
-25 -32 -22 -11 6 -12 -10 -2 -19 4 -4 20 5 37 20 l31 28 -28 -31 c-20 -22
-25 -34 -17 -39 6 -4 9 -13 6 -20 -3 -8 1 -18 8 -24 9 -8 12 -2 12 24 0 21 -4
31 -11 28 -5 -4 -1 3 9 15 21 24 32 29 19 10 -11 -18 -11 -98 0 -105 6 -3 8 7
5 25 -2 17 -1 29 4 26 4 -3 8 -16 8 -29 0 -13 4 -26 9 -30 12 -7 8 45 -4 65
-11 18 -16 45 -7 35 4 -4 7 -12 7 -18 0 -7 6 -13 13 -13 23 -3 24 -4 15 -16
-5 -7 -8 -26 -7 -43 3 -47 5 -51 13 -30 5 11 6 31 4 45 -4 24 -4 24 10 5 11
-14 12 -24 4 -35 -7 -12 -6 -22 2 -36 12 -18 12 -18 8 3 -3 13 -1 26 4 29 5 3
9 2 8 -3 -4 -22 2 -44 10 -38 12 7 6 41 -13 70 -14 21 -14 24 2 37 15 11 15
11 5 -2 -9 -12 -6 -24 17 -57 16 -24 26 -42 22 -40 -4 1 -8 -2 -10 -8 -1 -5 4
-10 11 -10 7 0 11 -11 9 -30 -3 -29 -3 -29 11 -10 11 14 12 25 6 37 -5 10 -7
18 -3 18 4 0 -3 12 -17 27 -13 15 -17 22 -8 15 21 -15 32 -3 16 17 -11 14 -10
14 6 2 12 -9 14 -17 7 -26 -5 -6 -7 -15 -3 -19 7 -6 9 -12 16 -49 2 -9 9 -23
15 -29 10 -10 12 -7 8 12 -2 14 -5 25 -6 25 -6 0 -6 36 0 40 5 3 7 -3 5 -12
-1 -10 0 -22 4 -28 10 -18 11 -44 1 -50 -6 -3 -5 -15 2 -30 6 -13 15 -22 20
-19 5 3 4 12 -3 20 -8 9 -8 18 -2 26 6 7 9 21 8 30 -2 10 0 20 4 23 10 5 8
-42 -2 -51 -16 -16 -6 -26 11 -11 15 14 19 14 19 3 0 -8 -3 -14 -6 -13 -3 1
-7 -3 -8 -8 -4 -13 20 -13 30 0 5 6 7 3 4 -7 -8 -23 17 -43 31 -26 6 7 11 18
12 23 3 17 9 18 6 1 -1 -8 -10 -24 -19 -34 -17 -18 -17 -20 0 -33 15 -12 16
-12 10 3 -3 10 -3 19 1 22 4 3 8 -4 9 -14 1 -11 -2 -22 -8 -25 -5 -4 -9 -12
-9 -18 1 -7 10 -1 20 12 26 31 26 17 0 -16 -32 -41 -23 -51 11 -13 17 19 26
28 20 19 -18 -26 8 -43 33 -21 12 10 9 3 -7 -16 -25 -31 -29 -60 -6 -46 5 3 7
9 4 14 -3 4 2 13 9 19 19 16 30 -2 32 -51 2 -64 4 -69 13 -63 5 3 8 18 5 33
-3 19 -2 23 5 12 5 -8 8 -17 5 -21 -2 -4 2 -12 10 -18 8 -7 12 -27 11 -51 -2
-22 1 -38 5 -35 4 3 14 -3 21 -12 10 -12 10 -14 2 -9 -7 4 -13 3 -13 -3 0 -5
-3 -18 -6 -28 -5 -16 -4 -16 11 2 12 14 16 16 15 5 -4 -26 0 -41 8 -36 13 8 8
62 -8 81 -13 16 -27 65 -14 53 3 -3 7 -14 8 -25 2 -10 7 -17 12 -15 12 3 12
24 0 42 -9 13 -9 13 6 2 16 -13 18 -35 5 -48 -4 -4 -3 -12 2 -18 5 -6 10 -15
11 -21 1 -5 7 -9 13 -7 7 2 9 0 5 -3 -11 -11 11 -47 24 -39 7 5 8 2 3 -6 -6
-10 -14 -6 -33 16 -13 16 -22 22 -19 14 3 -9 -1 -24 -8 -34 -14 -19 -9 -50 6
-41 4 3 6 12 3 19 -8 20 12 28 26 11 10 -12 16 -13 28 -3 13 11 14 11 7 -2 -6
-8 -10 -18 -10 -22 0 -3 -4 -10 -9 -15 -5 -4 -6 -3 -3 3 4 6 -2 19 -13 29 -24
22 -25 18 -4 -24 14 -28 18 -30 32 -19 15 11 15 11 5 -3 -7 -9 -9 -20 -5 -24
4 -5 1 -5 -5 -1 -8 4 -13 1 -14 -8 -1 -9 -2 -21 -3 -28 0 -7 -19 -13 -44 -14
-34 -1 -39 1 -27 10 10 7 13 19 8 35 -6 23 -7 24 -14 5 -5 -12 -7 -2 -4 26 3
33 2 41 -6 30 -8 -11 -9 -9 -4 10 5 20 4 22 -5 10 -9 -12 -10 -10 -5 10 5 20
4 22 -5 10 -10 -13 -11 -12 -6 3 3 10 2 15 -4 12 -11 -7 -32 29 -22 40 4 5 2
5 -5 1 -8 -4 -10 5 -8 31 3 28 2 33 -5 18 l-9 -20 -1 20 -1 20 -9 -20 c-6 -14
-7 -7 -3 21 3 25 1 44 -6 48 -7 5 -9 -4 -6 -26 4 -29 4 -30 -4 -8 -9 25 -9 25
-10 2 -1 -13 -6 -20 -11 -17 -7 4 -7 12 0 25 13 24 13 39 0 20 -8 -11 -9 -8
-6 13 3 15 1 25 -4 22 -5 -3 -5 8 0 25 5 17 5 32 -1 35 -5 4 -10 -9 -10 -27
l-2 -33 -4 30 c-7 46 -23 54 -18 9 4 -35 4 -36 -4 -9 -9 30 -9 30 -8 -7 1 -21
-2 -40 -6 -44 -12 -12 -13 49 -2 81 6 16 5 17 -4 5 -9 -12 -10 -10 -5 11 3 16
1 30 -6 34 -9 5 -10 1 -6 -16 l7 -24 -15 25 c-8 14 -12 28 -10 31 2 4 -4 6
-14 5 -12 -1 -16 6 -15 24 1 14 -1 19 -4 12 -3 -8 -15 0 -33 23 -15 20 -30 32
-32 28 -3 -5 -3 -2 -1 5 1 7 -1 11 -6 7 -14 -8 -51 44 -51 72 0 13 -4 22 -9
19 -5 -3 -7 -16 -5 -29 4 -20 4 -20 -4 -2 -7 16 -10 17 -14 5 -3 -10 -4 -9 -2
3 1 10 -2 14 -8 10 -7 -4 -8 -1 -3 7 5 9 4 11 -3 6 -8 -5 -10 -1 -6 11 5 15 4
16 -6 3 -9 -12 -10 -11 -5 8 8 29 -3 29 -16 0 -10 -23 -10 -23 -5 1 3 15 1 20
-5 14 -16 -16 -19 -71 -4 -83 14 -12 14 -27 0 -50 -7 -13 -6 -13 7 -2 9 7 15
21 13 30 -2 10 3 26 11 37 13 17 14 15 11 -18 -2 -20 -12 -47 -23 -59 l-19
-23 26 23 26 23 16 -24 c12 -19 13 -27 4 -38 -7 -7 -2 -5 11 5 15 13 20 26 17
40 -6 21 -6 21 9 2 15 -18 14 -22 -6 -43 -12 -13 -18 -23 -14 -23 5 0 2 -8 -5
-18 -13 -15 -12 -16 3 -4 10 8 16 18 15 22 -1 4 3 8 8 8 6 0 9 -4 8 -9 -2 -5
0 -8 5 -6 4 1 7 -2 7 -8 0 -5 -4 -9 -8 -7 -5 1 -5 -2 -2 -8 5 -8 13 -6 26 6
24 21 25 7 2 -18 -14 -15 -14 -19 -3 -16 9 2 14 -4 14 -14 -2 -23 3 -23 16 2
6 11 7 19 3 18 -4 -2 -8 2 -8 7 0 5 4 9 8 7 4 -1 3 6 -3 17 -18 34 -11 47 9
16 13 -21 16 -37 10 -52 -5 -13 -4 -25 2 -28 5 -4 9 -3 8 2 -4 22 2 44 10 39
5 -3 7 -15 4 -27 -4 -14 4 -31 23 -52 41 -45 55 -72 43 -84 -6 -6 -4 -10 5
-10 8 0 13 8 11 17 -2 9 1 23 6 31 10 16 10 17 13 -31 2 -19 5 -39 7 -45 2 -5
-1 -11 -6 -12 -6 -2 -10 1 -10 6 0 5 -3 12 -7 16 -19 20 2 -29 23 -51 13 -14
22 -27 19 -29 -3 -2 -2 -7 2 -11 4 -3 6 3 3 14 -2 12 0 24 6 27 5 4 10 -2 10
-12 1 -10 2 -23 3 -29 0 -7 13 -24 29 -39 l27 -28 -22 -26 -23 -26 28 24 c15
14 27 20 27 14 0 -6 -7 -16 -15 -23 -10 -8 -12 -17 -6 -24 5 -6 9 -15 9 -19 0
-5 3 -11 5 -14 8 -7 3 20 -6 34 -4 6 -3 14 2 17 10 6 22 -17 26 -50 3 -20 -2
-21 -73 -23 -42 -1 -78 -4 -81 -7 -2 -2 635 -4 1416 -4 1276 0 1425 2 1474 16
188 56 328 196 383 383 14 49 16 227 16 1751 0 1524 -2 1702 -16 1751 -56 190
-204 335 -391 384 -85 22 -3410 21 -3492 -1z m3447 -370 c56 -23 106 -69 138
-126 25 -46 29 -63 29 -133 0 -70 -4 -87 -29 -133 -53 -95 -138 -145 -246
-145 -108 0 -193 50 -246 145 -25 46 -29 63 -29 133 0 70 4 87 29 133 28 51
73 94 124 121 60 32 162 34 230 5z m-1453 -229 c330 -52 637 -214 877 -463
449 -468 558 -1158 277 -1749 -94 -197 -281 -426 -456 -557 -286 -214 -590
-317 -941 -317 -418 0 -780 146 -1081 435 -308 297 -471 682 -472 1112 -1 430
149 791 456 1100 355 357 842 516 1340 439z m-2345 -2519 c0 -2 -8 -10 -17
-17 -16 -13 -17 -12 -4 4 13 16 21 21 21 13z m155 -35 c3 -5 2 -12 -3 -15 -5
-3 -9 1 -9 9 0 17 3 19 12 6z m272 -106 c0 -8 -4 -12 -9 -9 -5 3 -6 10 -3 15
9 13 12 11 12 -6z m144 -82 c13 -16 12 -17 -3 -4 -10 7 -18 15 -18 17 0 8 8 3
21 -13z m36 -10 c-4 -3 -2 -12 4 -19 7 -8 6 -14 -2 -20 -7 -4 -9 -3 -5 4 3 6
2 13 -4 17 -10 6 -5 25 7 25 4 0 3 -3 0 -7z m103 -88 c13 -14 21 -25 18 -25
-2 0 -15 11 -28 25 -13 14 -21 25 -18 25 2 0 15 -11 28 -25z m100 -59 c0 -2
-8 -10 -17 -17 -16 -13 -17 -12 -4 4 13 16 21 21 21 13z m-112 -105 c1 -1 -2
-10 -8 -22 -13 -23 -22 -19 -27 10 -2 17 5 20 35 12z m37 -65 c-5 -19 -4 -19
6 1 12 22 12 22 41 -15 17 -20 35 -37 41 -37 6 0 22 -16 34 -35 13 -19 30 -39
37 -45 18 -14 39 -55 42 -83 l2 -24 -24 23 c-14 13 -24 32 -22 44 1 12 -6 33
-17 47 -11 14 -25 34 -32 44 -11 18 -12 18 -19 -4 -6 -22 -8 -22 -25 -6 -13
12 -16 21 -9 29 6 7 4 19 -6 33 -18 27 -37 19 -29 -11 5 -18 2 -17 -17 7 -27
35 -31 53 -12 53 9 0 13 -7 9 -21z m240 -5 c3 -5 2 -12 -3 -15 -5 -3 -9 1 -9
9 0 17 3 19 12 6z m71 -76 c-1 -8 -5 -17 -8 -21 -5 -4 -4 16 1 34 3 9 9 -1 7
-13z m18 -34 c3 -5 -2 -15 -12 -22 -15 -12 -16 -12 -5 2 7 9 10 19 6 22 -3 4
-4 7 0 7 3 0 8 -4 11 -9z m82 -127 c1 -9 0 -13 -4 -10 -3 4 -7 14 -8 22 -1 9
0 13 4 10 3 -4 7 -14 8 -22z m-141 -52 c0 -15 4 -32 7 -38 6 -8 5 -27 -1 -52
-1 -2 -6 0 -11 3 -8 5 -8 11 -1 19 6 7 8 16 4 20 -4 4 -8 21 -8 40 -1 18 -5
39 -10 47 -6 11 -5 12 6 1 7 -7 14 -25 14 -40z m165 22 c0 -8 -19 -13 -24 -6
-3 5 1 9 9 9 8 0 15 -2 15 -3z m20 -8 c0 -2 -8 -10 -17 -17 -16 -13 -17 -12
-4 4 13 16 21 21 21 13z m-135 -134 c-1 -12 0 -20 3 -17 3 2 12 -1 21 -8 14
-10 14 -10 3 5 -13 16 -29 78 -17 66 4 -3 7 -13 9 -21 1 -8 9 -25 17 -38 31
-47 52 -94 53 -119 1 -14 6 -24 14 -23 19 4 14 -11 -8 -25 -16 -10 -20 -10
-22 0 -3 29 -4 34 -15 53 -5 11 -9 25 -7 30 2 6 -10 26 -28 45 -18 19 -34 46
-35 59 -1 13 -6 28 -12 34 -5 5 -7 16 -4 24 8 21 31 -34 28 -65z m234 -69 c-1
-5 0 -10 1 -13 7 -19 7 -39 -1 -34 -5 3 -7 9 -4 14 3 5 1 11 -5 15 -6 4 -8 11
-5 16 7 11 15 12 14 2z m-6 -80 c-5 -12 -3 -14 7 -8 9 5 11 4 6 -4 -10 -16
-25 -4 -23 19 1 10 5 17 9 14 4 -3 4 -12 1 -21z m-15 -24 c9 -12 9 -16 -1 -16
-7 0 -14 9 -14 20 -1 11 -1 18 0 16 2 -2 8 -11 15 -20z m57 -8 c-9 -8 -36 -10
-30 -2 2 4 11 8 20 8 8 0 13 -3 10 -6z"/>
<path d="M4505 4889 c-106 -10 -190 -35 -300 -89 -177 -85 -319 -227 -406
-405 -65 -134 -91 -246 -91 -395 0 -344 191 -651 497 -801 133 -65 246 -91
395 -91 343 -1 651 191 801 497 66 135 92 248 91 395 0 533 -454 941 -987 889z"/>
<path d="M3303 2393 c0 -9 4 -10 14 -2 7 6 13 12 13 14 0 1 -6 2 -13 2 -8 0
-14 -6 -14 -14z"/>
<path d="M3403 2291 c0 -11 5 -18 9 -15 4 3 5 11 1 19 -7 21 -12 19 -10 -4z"/>
<path d="M3590 2014 c0 -6 7 -19 16 -30 14 -18 14 -18 3 6 -14 31 -19 36 -19
24z"/>
<path d="M3623 1941 c0 -11 5 -18 9 -15 4 3 5 11 1 19 -7 21 -12 19 -10 -4z"/>
<path d="M2480 2930 c-1 -8 -3 -31 -5 -50 -1 -19 -1 -29 2 -22 9 24 18 12 17
-23 -1 -21 4 -39 15 -47 14 -11 14 -11 6 2 -15 22 -20 74 -6 65 6 -3 9 -10 6
-15 -3 -5 -1 -11 5 -15 6 -4 8 -10 5 -15 -3 -5 -1 -11 4 -15 5 -3 8 -14 6 -25
-2 -12 0 -18 6 -14 6 3 8 9 5 12 -3 3 -1 11 6 19 7 9 8 13 1 11 -6 -2 -11 2
-12 7 -1 13 22 14 31 1 4 -6 2 -17 -5 -26 -6 -8 0 -4 15 8 l26 24 13 -24 c7
-12 12 -27 10 -33 -1 -5 1 -6 6 -2 4 5 9 13 9 18 3 22 5 23 14 9 6 -9 5 -20
-3 -30 -6 -8 0 -5 14 8 25 22 26 22 42 4 10 -10 14 -23 10 -27 -5 -5 0 -4 9 4
10 7 14 19 11 29 -6 15 -5 15 10 3 16 -13 16 -15 2 -31 -12 -14 -13 -20 -4
-26 7 -4 10 -3 5 4 -3 6 -2 13 3 16 14 9 21 -20 8 -35 -10 -11 -9 -11 5 0 13
10 15 18 8 31 -7 13 -5 22 7 31 14 12 15 11 9 -8 -4 -12 -2 -24 4 -28 8 -5 6
-14 -7 -28 -9 -12 -11 -16 -3 -10 11 10 17 10 30 -2 14 -13 17 -13 17 -1 0 8
-3 14 -6 13 -3 -1 -7 2 -9 7 -1 6 4 11 13 12 8 1 16 -2 16 -7 1 -5 2 -15 3
-21 1 -7 -3 -20 -8 -28 -10 -13 -9 -13 6 -1 10 7 16 17 13 21 -3 5 -1 11 4 14
13 8 21 -20 9 -32 -6 -6 -6 -12 3 -17 7 -5 10 -4 6 2 -4 6 2 18 13 28 18 17
30 8 13 -9 -10 -10 -12 -66 -2 -60 4 2 6 16 3 30 -3 18 -1 23 7 18 7 -4 9 -3
6 3 -4 6 0 19 9 29 14 18 15 18 9 -3 -4 -13 1 -32 10 -47 9 -14 17 -29 17 -33
0 -4 1 -10 4 -12 5 -5 -4 37 -10 48 -3 5 2 15 11 22 14 12 15 11 9 -8 -4 -12
-3 -24 3 -27 11 -7 9 -25 -4 -46 -8 -13 -7 -13 8 -1 9 7 15 17 12 21 -3 5 -1
11 4 14 13 8 21 -20 9 -32 -6 -6 -6 -12 3 -17 7 -5 10 -4 6 2 -8 12 27 46 36
36 10 -10 8 -25 -2 -18 -15 8 -24 -14 -12 -29 6 -7 7 -17 3 -22 -4 -5 3 0 16
10 12 11 22 16 22 11 0 -4 7 -2 15 5 9 8 15 9 15 2 0 -11 -19 -27 -32 -27 -3
0 -10 -4 -15 -8 -4 -5 -1 -7 7 -5 8 1 15 -3 16 -9 1 -7 3 -15 4 -18 1 -3 3 -9
4 -14 0 -5 4 -12 8 -16 3 -4 5 1 3 12 -2 10 -4 18 -5 18 -10 0 -5 37 6 46 13
10 14 8 10 -14 -2 -15 0 -29 5 -33 5 -3 7 -9 5 -13 -3 -4 1 -8 9 -8 13 0 13 3
1 16 -7 9 -12 24 -11 34 5 29 35 68 47 61 7 -5 8 -3 4 5 -5 7 -11 10 -14 7 -9
-10 -61 45 -56 58 3 7 -4 20 -14 30 -19 16 -20 16 -25 -6 -4 -12 -2 -27 4 -33
7 -6 10 -7 9 0 -2 6 -2 17 -1 25 1 13 2 13 11 0 12 -19 -8 -44 -25 -30 -6 5
-14 8 -16 5 -3 -2 -6 5 -7 15 -4 48 -5 50 -18 39 -9 -7 -15 -5 -23 9 -6 11 -8
22 -5 24 2 3 -3 11 -13 19 -15 12 -16 12 -10 -3 4 -10 10 -26 13 -35 5 -15 4
-16 -5 -3 -9 13 -11 13 -11 0 0 -13 -1 -13 -10 0 -9 13 -10 13 -10 0 0 -12 -2
-13 -9 -1 -5 7 -11 9 -13 5 -3 -5 -3 -3 -1 4 1 7 -2 10 -7 7 -6 -4 -7 2 -4 12
5 15 4 16 -6 3 -10 -13 -11 -13 -6 3 3 9 1 17 -4 17 -6 0 -10 -8 -11 -17 0
-15 -2 -15 -8 2 l-8 20 -6 -20 c-2 -11 -3 1 -1 28 1 26 -1 45 -6 42 -11 -7
-10 -77 1 -92 7 -7 6 -13 0 -18 -6 -3 -13 7 -17 22 -10 46 -12 50 -13 20 -1
-16 -5 -26 -11 -22 -6 4 -6 15 0 30 5 14 7 25 5 25 -3 0 -10 -12 -16 -26 -5
-15 -12 -24 -15 -21 -3 3 -1 14 5 26 8 14 8 22 -1 27 -7 5 -8 3 -3 -7 7 -11 6
-12 -7 -2 -8 7 -19 9 -23 5 -5 -4 -5 -2 -1 5 4 7 4 24 0 38 -5 19 -9 23 -19
15 -15 -12 -30 3 -20 19 3 5 1 12 -5 16 -6 4 -7 11 -4 17 4 6 2 8 -4 4 -6 -3
-9 -17 -6 -30 2 -14 -3 -29 -13 -37 -11 -9 -14 -10 -9 -2 4 8 2 11 -7 7 -8 -3
-20 3 -27 13 -12 15 -12 16 0 6 19 -18 33 -16 26 3 -3 8 -2 12 3 9 5 -3 12 -1
15 4 11 16 -11 22 -24 6 -17 -20 -31 -9 -26 20 5 25 -8 43 -18 26 -4 -5 -2
-13 4 -16 8 -5 8 -11 0 -20 -7 -8 -8 -20 -4 -26 5 -8 3 -9 -6 -4 -9 6 -11 4
-5 -4 6 -10 2 -10 -16 0 -13 7 -28 12 -33 11 -5 -2 -3 4 4 13 12 14 10 20 -14
43 -27 26 -28 26 -21 5 12 -41 -6 -46 -36 -11 -18 21 -29 28 -29 18z m72 -41
c12 17 17 19 21 8 3 -8 0 -20 -6 -26 -6 -6 -8 -12 -4 -12 18 -3 23 -6 44 -17
14 -8 24 -9 28 -2 8 14 54 -21 55 -41 0 -9 -3 -19 -7 -22 -8 -9 -36 30 -29 41
3 5 -1 9 -9 9 -10 0 -11 -5 -5 -17 17 -32 -3 -30 -28 3 -14 17 -22 24 -19 15
3 -10 2 -20 -3 -23 -6 -4 -11 -1 -11 4 -1 6 -2 15 -3 20 0 5 -5 13 -10 18 -5
4 -6 3 -2 -4 3 -6 1 -15 -5 -19 -8 -5 -10 -1 -7 13 3 12 0 20 -7 20 -7 0 -10
-8 -7 -20 3 -14 1 -18 -7 -13 -6 4 -9 11 -6 16 3 5 -7 18 -21 29 -15 12 -22
21 -15 21 6 0 11 5 11 11 0 5 -5 7 -12 3 -7 -5 -8 -3 -3 6 5 9 14 5 30 -16
l22 -27 15 22z m203 -64 c6 0 10 -11 11 -25 0 -15 5 -24 13 -22 7 1 9 -2 6 -8
-5 -8 -13 -6 -25 5 -20 18 -37 5 -24 -17 4 -7 -2 -4 -14 6 -12 11 -22 27 -22
36 0 21 20 41 34 32 6 -4 16 -7 21 -7z m168 -121 c5 -10 6 -16 2 -12 -5 4 -14
3 -22 -3 -7 -6 -13 -8 -14 -3 0 5 -2 16 -4 25 -4 23 25 18 38 -7z m57 -14 c0
13 1 13 10 0 9 -13 10 -13 10 0 0 12 2 13 9 1 5 -7 13 -11 19 -7 6 4 8 -3 5
-16 -4 -19 -3 -20 7 -8 9 13 10 12 8 -5 -2 -11 2 -20 9 -20 6 0 15 -3 19 -7 4
-4 12 -3 19 2 8 7 20 1 38 -18 22 -23 24 -29 13 -45 -12 -16 -14 -16 -20 -1
-5 13 -9 14 -21 4 -12 -10 -15 -10 -15 1 -1 9 -4 8 -11 -4 -10 -17 -29 -15
-29 4 0 6 4 8 9 4 16 -9 24 15 11 31 -10 11 -16 12 -26 3 -11 -9 -14 -8 -16 2
0 8 -2 19 -3 24 -2 6 -3 17 -4 25 -1 13 -3 13 -10 1 -5 -8 -7 -21 -3 -29 4
-10 1 -13 -7 -8 -7 5 -10 15 -7 23 10 25 -5 35 -25 17 -19 -17 -24 -9 -13 21
5 13 8 14 15 3 7 -10 9 -10 9 2z"/>
<path d="M2500 2886 c0 -2 8 -10 18 -17 15 -13 16 -12 3 4 -13 16 -21 21 -21
13z"/>
<path d="M2549 2873 c-13 -16 -12 -17 4 -4 16 13 21 21 13 21 -2 0 -10 -8 -17
-17z"/>
<path d="M2666 2807 c3 -10 9 -15 12 -12 3 3 0 11 -7 18 -10 9 -11 8 -5 -6z"/>
<path d="M2714 2816 c-4 -10 -2 -22 4 -28 8 -8 13 -7 18 6 4 10 2 22 -4 28 -8
8 -13 7 -18 -6z m13 -18 c-3 -8 -6 -5 -6 6 -1 11 2 17 5 13 3 -3 4 -12 1 -19z"/>
<path d="M2751 2804 c0 -11 3 -14 6 -6 3 7 2 16 -1 19 -3 4 -6 -2 -5 -13z"/>
<path d="M3079 2607 c14 -15 27 -25 29 -22 3 3 11 0 18 -6 23 -19 23 8 0 30
-16 15 -26 19 -31 11 -5 -8 -11 -8 -23 2 -10 7 -6 0 7 -15z m47 -9 c15 -19 16
-20 2 -9 -10 7 -18 10 -18 7 0 -4 -5 -4 -10 -1 -6 4 -8 11 -5 16 8 12 9 12 31
-13z"/>
<path d="M2597 2886 c-3 -8 -2 -18 4 -22 16 -9 22 2 11 21 -8 15 -10 16 -15 1z"/>
<path d="M2800 2831 c-11 -22 -14 -48 -3 -38 3 4 12 2 20 -4 7 -6 13 -8 13 -4
0 4 6 2 14 -4 12 -10 13 -8 9 9 -3 11 -8 18 -11 15 -10 -9 -31 16 -25 31 8 21
-5 17 -17 -5z m21 -28 c13 -16 12 -17 -3 -4 -17 13 -22 21 -14 21 2 0 10 -8
17 -17z"/>
<path d="M2931 2797 c-7 -7 -17 -12 -23 -12 -6 0 -13 -6 -16 -13 -2 -7 2 -10
11 -6 9 3 21 -4 31 -17 15 -22 46 -35 46 -20 0 3 -7 17 -16 29 -8 12 -13 26
-9 31 9 15 -11 21 -24 8z m29 -62 c0 -5 -5 -3 -10 5 -5 8 -10 20 -10 25 0 6 5
3 10 -5 5 -8 10 -19 10 -25z"/>
<path d="M2470 2796 c0 -2 8 -10 18 -17 15 -13 16 -12 3 4 -13 16 -21 21 -21
13z"/>
<path d="M2589 2773 c-13 -16 -12 -17 4 -4 9 7 17 15 17 17 0 8 -8 3 -21 -13z"/>
<path d="M2609 2768 c-5 -18 -6 -38 -1 -34 7 8 12 36 6 36 -2 0 -4 -1 -5 -2z"/>
<path d="M2681 2746 c-9 -10 -9 -16 -1 -21 6 -4 10 -3 9 2 -3 20 2 27 11 13 6
-9 10 -10 10 -3 0 19 -17 24 -29 9z"/>
<path d="M1513 2702 c2 -12 6 -24 10 -28 3 -4 4 4 2 16 -6 30 -16 40 -12 12z"/>
<path d="M2720 2716 c0 -2 8 -10 18 -17 15 -13 16 -12 3 4 -13 16 -21 21 -21
13z"/>
<path d="M2800 2676 c0 -2 8 -10 18 -17 15 -13 16 -12 3 4 -13 16 -21 21 -21
13z"/>
<path d="M1455 2661 c-3 -5 -2 -12 3 -15 5 -3 9 1 9 9 0 17 -3 19 -12 6z"/>
<path d="M1384 2618 l-19 -23 23 19 c21 18 27 26 19 26 -2 0 -12 -10 -23 -22z"/>
<path d="M2933 2625 c0 -8 4 -12 9 -9 5 3 6 10 3 15 -9 13 -12 11 -12 -6z"/>
<path d="M2940 2596 c0 -2 8 -10 18 -17 15 -13 16 -12 3 4 -13 16 -21 21 -21
13z"/>
<path d="M1215 2540 c-16 -16 -25 -30 -21 -30 5 0 2 -8 -5 -17 -13 -16 -12
-17 3 -4 10 7 16 17 13 21 -7 11 40 51 50 43 4 -5 5 -2 1 5 -9 16 -8 17 -41
-18z"/>
<path d="M3220 2551 c0 -6 4 -13 10 -16 6 -3 7 1 4 9 -7 18 -14 21 -14 7z"/>
<path d="M3025 2541 c-3 -5 -2 -12 3 -15 5 -3 9 1 9 9 0 17 -3 19 -12 6z"/>
<path d="M1229 2523 c-13 -16 -12 -17 4 -4 9 7 17 15 17 17 0 8 -8 3 -21 -13z"/>
<path d="M3270 2518 c0 -27 27 -71 40 -63 4 3 20 -11 34 -30 15 -19 32 -34 39
-32 7 1 11 -7 10 -21 -2 -17 2 -22 15 -20 9 2 16 -3 15 -9 -2 -7 2 -12 9 -10
6 1 17 -9 25 -23 7 -14 13 -20 14 -15 6 40 3 67 -8 77 -7 5 -11 14 -8 18 2 4
-4 15 -15 25 -25 23 -25 15 0 -29 16 -25 18 -36 9 -42 -8 -5 -9 -3 -4 6 6 9 4
11 -5 5 -9 -5 -11 -4 -6 3 7 12 -12 57 -21 49 -2 -3 0 -14 6 -24 7 -15 7 -20
-3 -20 -9 0 -12 12 -10 34 2 28 0 32 -11 23 -11 -9 -17 -5 -30 19 -8 17 -13
31 -9 31 4 0 1 7 -7 16 -11 14 -13 14 -21 -1 -13 -23 -31 -7 -24 21 8 30 -1
31 -15 2 l-10 -23 5 22 c2 13 0 26 -5 29 -5 3 -9 -5 -9 -18z m92 -93 l20 -30
-26 30 c-14 17 -26 37 -25 45 0 13 1 13 6 0 3 -8 15 -28 25 -45z"/>
<path d="M1139 2484 c-15 -19 -21 -47 -8 -38 5 3 7 9 4 14 -7 11 20 32 30 22
5 -4 5 -1 1 6 -9 15 -11 15 -27 -4z"/>
<path d="M3260 2336 c0 -2 8 -10 18 -17 15 -13 16 -12 3 4 -13 16 -21 21 -21
13z"/>
<path d="M3501 2297 c-8 -12 -10 -19 -6 -15 5 4 14 3 20 -2 9 -7 14 -6 18 4 3
8 0 19 -7 25 -8 7 -16 4 -25 -12z"/>
<path d="M3569 2287 c-1 -4 -2 -10 -3 -14 -1 -5 -10 -19 -20 -33 -10 -14 -16
-17 -13 -8 4 10 2 20 -4 24 -7 4 -9 -6 -7 -27 3 -19 9 -34 14 -34 20 0 34 -18
34 -43 0 -20 3 -23 9 -12 6 8 7 18 4 24 -3 5 -2 6 4 3 6 -4 9 -25 8 -47 -1
-22 2 -43 6 -46 5 -3 7 -9 5 -13 -3 -4 0 -13 5 -21 8 -11 10 -9 6 12 -3 18 0
25 9 21 7 -2 11 -10 8 -17 -3 -7 5 -29 16 -49 12 -20 19 -40 16 -45 -3 -5 1
-24 10 -41 8 -17 13 -34 10 -39 -2 -4 5 -8 18 -8 13 0 23 6 23 16 1 8 2 20 3
25 4 18 -12 55 -21 49 -5 -3 -6 -11 -2 -17 11 -18 13 -39 4 -55 -7 -12 -9 -11
-14 2 -4 10 -3 15 3 11 17 -11 11 7 -7 21 -17 13 -17 14 2 7 20 -6 20 -6 1 15
-10 12 -20 32 -21 44 -4 38 -5 39 -14 33 -16 -9 -22 12 -11 39 7 19 6 25 -3
23 -7 -1 -12 12 -12 38 0 22 -4 41 -10 42 -5 1 -9 -4 -7 -12 1 -7 -3 -17 -9
-21 -8 -4 -9 -3 -5 5 4 6 2 19 -5 27 -6 8 -13 37 -13 64 -1 27 -5 52 -9 56 -4
4 -8 4 -8 1z m-4 -57 c-4 -12 -1 -29 6 -38 12 -16 12 -16 -5 -1 -12 11 -16 24
-11 38 3 11 9 21 11 21 3 0 2 -9 -1 -20z m53 -125 c-6 -14 -13 -23 -15 -21 -5
5 15 46 22 46 3 0 -1 -11 -7 -25z"/>
<path d="M3336 2272 c-3 -5 14 -26 37 -48 l42 -39 -38 41 c-20 22 -34 43 -31
47 4 4 5 7 1 7 -3 0 -8 -4 -11 -8z"/>
<path d="M3390 2235 c19 -19 36 -35 39 -35 3 0 -10 16 -29 35 -19 19 -36 35
-39 35 -3 0 10 -16 29 -35z"/>
<path d="M3416 2182 c-3 -5 1 -9 9 -9 8 0 12 4 9 9 -3 4 -7 8 -9 8 -2 0 -6 -4
-9 -8z"/>
<path d="M3420 2135 c0 -2 6 -8 13 -14 10 -8 14 -7 14 2 0 8 -6 14 -14 14 -7
0 -13 -1 -13 -2z"/>
<path d="M3469 2077 c6 -8 7 -18 3 -22 -4 -5 -1 -5 6 -1 10 6 10 11 1 22 -6 8
-14 14 -16 14 -3 0 0 -6 6 -13z"/>
<path d="M3518 2018 c9 -9 9 -15 -1 -27 -11 -14 -10 -14 6 -2 13 10 15 17 6
27 -6 8 -14 14 -17 14 -3 0 -1 -5 6 -12z"/>
<path d="M3553 1986 c3 -7 0 -20 -6 -27 -10 -11 -9 -11 5 0 15 11 15 41 1 41
-3 0 -3 -6 0 -14z"/>
<path d="M3519 1963 c-13 -16 -12 -17 4 -4 16 13 21 21 13 21 -2 0 -10 -8 -17
-17z"/>
<path d="M3553 1905 c0 -8 4 -12 9 -9 5 3 6 10 3 15 -9 13 -12 11 -12 -6z"/>
<path d="M3428 1853 c7 -3 16 -2 19 1 4 3 -2 6 -13 5 -11 0 -14 -3 -6 -6z"/>
<path d="M3689 1143 c-13 -16 -12 -17 4 -4 16 13 21 21 13 21 -2 0 -10 -8 -17
-17z"/>
<path d="M3813 1149 c9 -6 17 -17 17 -25 0 -10 5 -12 13 -8 8 5 8 2 -2 -9 -13
-16 -8 -22 14 -17 6 1 7 -2 3 -6 -4 -4 -3 -13 3 -20 7 -8 6 -14 -2 -20 -7 -4
-9 -3 -6 3 4 6 0 16 -8 23 -13 11 -15 9 -11 -11 3 -13 5 -27 5 -31 1 -3 9 -5
19 -4 21 4 24 44 4 69 -8 9 -11 17 -7 17 4 0 1 8 -8 18 -10 10 -15 21 -12 23
2 3 -6 6 -18 6 -19 2 -20 1 -4 -8z"/>
<path d="M3705 1131 c-3 -5 -1 -12 5 -16 6 -4 8 -10 5 -15 -3 -5 -1 -11 4 -14
8 -5 8 15 1 34 -1 3 -2 8 -1 13 1 10 -7 9 -14 -2z"/>
<path d="M3795 1130 c-4 -6 -2 -17 4 -24 6 -7 8 -16 4 -20 -4 -4 -8 -33 -9
-64 0 -31 -5 -68 -11 -82 -6 -14 -9 -38 -8 -55 1 -16 -3 -36 -9 -44 -6 -7 -11
-23 -12 -35 -3 -33 -11 -58 -30 -101 -10 -22 -19 -44 -19 -50 -1 -5 -7 -21
-15 -35 -8 -14 -15 -27 -15 -30 -3 -11 -28 -67 -46 -102 -10 -20 -18 -47 -18
-60 1 -13 1 -27 -1 -33 -1 -5 -2 -19 -1 -29 1 -18 4 -17 31 9 25 24 28 31 17
44 -11 14 -15 34 -8 44 1 1 4 19 6 41 2 21 7 41 11 45 4 3 4 -10 0 -30 -5 -28
-2 -39 14 -54 11 -10 21 -15 21 -12 5 27 4 34 -7 54 -11 18 -11 23 1 33 8 7
15 25 15 40 0 15 7 33 15 40 10 8 14 24 11 41 -4 30 17 59 29 39 3 -6 11 -8
16 -4 6 4 6 11 -2 20 -8 10 -9 18 0 27 6 8 8 17 4 20 -3 4 0 14 7 22 10 12 10
21 1 43 -10 22 -10 25 0 14 8 -7 14 -25 15 -40 0 -15 5 -26 10 -24 10 2 13 22
5 37 -3 6 -6 12 -7 15 -3 18 -17 39 -23 36 -3 -2 -7 9 -8 26 0 22 2 26 8 17 6
-10 8 -5 5 15 -3 16 -2 26 1 22 12 -11 13 -45 3 -51 -6 -4 -7 -11 -4 -17 4 -6
13 -1 21 13 13 22 13 18 -3 -28 -4 -12 1 -9 14 7 20 24 20 24 1 49 -18 22 -18
26 -4 42 11 11 13 19 6 24 -11 6 -15 -1 -11 -20 1 -5 -2 -6 -6 -2 -13 13 -13
38 -1 30 9 -5 9 -3 1 8 -13 16 -15 51 -3 43 5 -2 5 -12 2 -21 -5 -12 -3 -14 8
-8 8 4 11 4 6 0 -4 -5 -1 -15 7 -24 8 -9 15 -19 15 -23 1 -9 11 -11 11 -3 0 3
-7 20 -17 38 -9 17 -18 50 -19 72 -3 63 -3 65 -13 65 -6 0 -13 -5 -16 -10z
m19 -16 c3 -8 2 -12 -4 -9 -6 3 -10 10 -10 16 0 14 7 11 14 -7z m-39 -283 c-3
-5 -1 -12 5 -16 6 -4 4 -15 -6 -31 -9 -13 -13 -24 -10 -24 4 0 0 -13 -9 -30
-9 -16 -18 -30 -21 -30 -2 0 0 9 6 21 12 22 20 49 25 89 4 30 4 30 11 30 3 0
3 -4 -1 -9z m-50 -168 c-1 -10 -8 -29 -15 -43 -8 -14 -15 -33 -16 -42 -4 -42
-4 -43 -14 -28 -5 9 -5 19 2 27 6 7 7 13 4 13 -4 0 2 13 13 29 11 15 18 31 15
34 -3 3 -3 10 1 16 9 15 12 14 10 -6z m-38 -175 c2 -17 0 -19 -7 -8 -5 8 -6
18 -4 22 8 12 10 10 11 -14z m-52 -58 c-1 -28 -4 -53 -7 -55 -4 -5 -4 78 0 98
5 22 8 1 7 -43z"/>
<path d="M3674 1036 c1 -8 5 -18 8 -22 4 -3 5 1 4 10 -1 8 -5 18 -8 22 -4 3
-5 -1 -4 -10z"/>
<path d="M3663 955 c0 -8 4 -12 9 -9 5 3 6 10 3 15 -9 13 -12 11 -12 -6z"/>
<path d="M3675 931 c-3 -5 -1 -12 5 -16 6 -4 7 -12 3 -18 -4 -7 -8 -15 -9 -19
-1 -5 -2 -9 -4 -10 -7 -9 -7 -39 0 -43 5 -3 7 3 5 12 -1 10 2 24 8 31 5 6 6
12 2 12 -4 0 -2 6 4 14 8 10 9 16 1 21 -6 3 -8 11 -5 16 4 5 4 9 1 9 -3 0 -7
-4 -11 -9z"/>
<path d="M3653 905 c0 -8 4 -12 9 -9 5 3 6 10 3 15 -9 13 -12 11 -12 -6z"/>
<path d="M3623 805 c0 -8 10 -23 21 -32 21 -18 21 -18 4 2 -9 11 -17 24 -16
28 0 5 -2 11 -4 13 -3 2 -5 -3 -5 -11z"/>
<path d="M3540 566 c0 -2 8 -10 18 -17 15 -13 16 -12 3 4 -13 16 -21 21 -21
13z"/>
<path d="M3500 516 c0 -2 8 -10 18 -17 15 -13 16 -12 3 4 -13 16 -21 21 -21
13z"/>
<path d="M3493 485 c0 -8 4 -12 9 -9 5 3 6 10 3 15 -9 13 -12 11 -12 -6z"/>
<path d="M3466 461 c-3 -5 2 -15 12 -22 15 -12 16 -12 5 2 -7 9 -10 19 -6 22
3 4 4 7 0 7 -3 0 -8 -4 -11 -9z"/>
<path d="M3569 367 c-15 -21 -61 -115 -63 -129 -1 -3 -4 -9 -8 -13 -11 -12 -3
18 15 52 9 18 17 38 17 45 0 7 -9 -6 -20 -30 -11 -24 -23 -41 -27 -39 -6 4 -8
-34 -4 -63 1 -2 8 6 17 18 8 12 21 21 28 20 6 -2 11 2 11 7 0 6 -4 9 -8 7 -4
-1 0 12 8 29 9 17 18 40 20 51 3 12 7 23 11 27 3 3 4 -2 2 -11 -1 -9 2 -17 7
-17 6 -1 10 2 11 7 0 4 4 15 9 25 12 28 -8 38 -26 14z"/>
<path d="M3385 321 c-3 -5 -2 -12 3 -15 5 -3 9 1 9 9 0 17 -3 19 -12 6z"/>
<path d="M3343 295 c0 -8 4 -12 9 -9 5 3 6 10 3 15 -9 13 -12 11 -12 -6z"/>
<path d="M3205 256 c17 -7 41 -16 55 -20 20 -5 19 -3 -5 8 -16 7 -41 16 -55
20 -20 5 -19 3 5 -8z"/>
</g>
</svg>
